<?xml version="1.0" encoding="UTF-8"?>
<svg width="38px" height="38px" viewBox="0 0 38 38" version="1.1" xmlns="http://www.w3.org/2000/svg" xmlns:xlink="http://www.w3.org/1999/xlink">
    <!-- Generator: Sketch 40.3 (33839) - http://www.bohemiancoding.com/sketch -->
    <title>dribbble</title>
    <desc>Created with Sketch.</desc>
    <defs></defs>
    <g id="Page-1" stroke="none" stroke-width="1" fill="none" fill-rule="evenodd"><g id="Noma-Landing-Page-V2@2x" transform="translate(-412.000000, -116.000000)" fill="#FFFFFF"><path d="M446.587463,125.231954 C444.92996,122.392128 442.681443,120.143611 439.841616,118.486107 C437.001197,116.828604 433.900377,116 430.537081,116 C427.174082,116 424.072373,116.828604 421.232547,118.486107 C418.392424,120.143315 416.143907,122.391831 414.486403,125.231954 C412.828604,128.072077 412,131.173786 412,134.536489 C412,137.899488 412.8289,141.000605 414.486107,143.841024 C416.143611,146.680554 418.392128,148.929367 421.23225,150.586871 C424.072373,152.244374 427.173786,153.072978 430.536785,153.072978 C433.899784,153.072978 437.001493,152.244374 439.84132,150.586871 C442.681146,148.929663 444.929663,146.68085 446.587167,143.841024 C448.244374,141.000901 449.072978,137.899192 449.072978,134.536489 C449.072978,131.17349 448.244374,128.071781 446.587463,125.231954 L446.587463,125.231954 Z M430.536785,118.703256 C434.52694,118.703256 438.010808,120.022742 440.987501,122.661416 L440.685921,123.083569 C440.565052,123.252726 440.263472,123.578302 439.780589,124.061185 C439.298002,124.543772 438.770979,125.002659 438.199814,125.436957 C437.628353,125.871552 436.852481,126.366285 435.870718,126.921452 C434.888954,127.47662 433.843201,127.96365 432.732866,128.381952 C430.882506,124.970368 428.903574,121.897098 426.795478,119.161847 C428.066972,118.85612 429.313876,118.703256 430.536785,118.703256 L430.536785,118.703256 Z M418.131134,124.712633 C419.675767,122.765992 421.558122,121.26935 423.778792,120.223598 C425.774018,122.878566 427.736952,125.91984 429.667892,129.347125 C424.776257,130.63432 419.900915,131.278065 415.041571,131.277769 C415.556745,128.848245 416.5865,126.65957 418.131134,124.712633 L418.131134,124.712633 Z M415.765303,140.245174 C415.057272,138.434807 414.703256,136.532011 414.703256,134.536489 C414.703256,134.311045 414.711551,134.142184 414.727549,134.02961 C420.552659,134.02961 425.967171,133.281585 430.97138,131.784944 C431.486258,132.782409 431.912854,133.675594 432.250576,134.464205 C432.185698,134.496199 432.082011,134.532342 431.93685,134.572631 C431.791689,134.612921 431.687113,134.640768 431.622532,134.657062 L430.729642,134.971084 C430.117892,135.196232 429.317135,135.582242 428.327965,136.129411 C427.3385,136.676876 426.288599,137.328323 425.178264,138.084643 C424.067929,138.841258 422.921452,139.84287 421.738833,141.090071 C420.556214,142.336976 419.562601,143.67631 418.757993,145.10837 C417.470799,143.67631 416.473334,142.054949 415.765303,140.245174 L415.765303,140.245174 Z M430.536785,150.370018 C426.771482,150.370018 423.408483,149.163106 420.447788,146.74958 L420.809802,147.015017 C421.372968,145.775815 422.201572,144.585197 423.295909,143.442867 C424.390247,142.300538 425.443998,141.378913 426.457756,140.67888 C427.471515,139.979144 428.573554,139.319698 429.764469,138.699652 C430.955086,138.080199 431.767396,137.685894 432.201991,137.517329 C432.636586,137.348172 432.982603,137.215157 433.240042,137.118877 L433.28833,137.094584 L433.336618,137.094584 C434.913246,141.2299 436.039875,145.236645 436.715615,149.114522 C434.720389,149.95142 432.660878,150.369721 430.536785,150.370018 L430.536785,150.370018 Z M443.860507,143.092999 C442.669593,144.935361 441.18095,146.460146 439.395468,147.666761 C438.735133,143.96604 437.70597,140.192442 436.305609,136.346856 C439.507746,135.847679 442.798164,136.081122 446.177161,137.046296 C445.823145,139.234675 445.050829,141.250341 443.860507,143.092999 L443.860507,143.092999 Z M446.128576,134.31934 C445.967714,134.287345 445.766562,134.250907 445.52512,134.210913 C445.283975,134.17092 444.990098,134.122335 444.644081,134.066048 C444.29836,134.009761 443.911758,133.957622 443.485458,133.909333 C443.059158,133.861045 442.604715,133.816904 442.121535,133.776615 C441.638949,133.736325 441.124071,133.70433 440.577198,133.680038 C440.029437,133.656042 439.474566,133.643896 438.9114,133.643896 C438.34853,133.643896 437.756924,133.660189 437.137767,133.692184 C436.518314,133.723883 435.919006,133.780762 435.339842,133.861045 C435.291258,133.780466 435.23112,133.647747 435.158835,133.462593 C435.086551,133.277734 435.033819,133.136721 435.002417,133.040144 C434.696393,132.364404 434.342378,131.600086 433.939778,130.747486 C435.050113,130.296598 436.108308,129.777869 437.114364,129.19041 C438.119827,128.602952 438.923842,128.080372 439.527594,127.621781 C440.13105,127.162894 440.702215,126.67616 441.241385,126.161282 C441.780258,125.646404 442.130127,125.288537 442.291285,125.087386 C442.452444,124.885937 442.605307,124.688933 442.749876,124.496076 L442.774168,124.471784 C445.123409,127.335902 446.322618,130.63432 446.370314,134.367628 L446.128576,134.31934 L446.128576,134.31934 Z" id="dribbble"></path></g></g>
</svg>
