<?xml version="1.0" encoding="UTF-8"?>
<svg width="18px" height="37px" viewBox="0 0 18 37" version="1.1" xmlns="http://www.w3.org/2000/svg" xmlns:xlink="http://www.w3.org/1999/xlink">
    <!-- Generator: Sketch 40.3 (33839) - http://www.bohemiancoding.com/sketch -->
    <title>facebook</title>
    <desc>Created with Sketch.</desc>
    <defs></defs>
    <g id="Page-1" stroke="none" stroke-width="1" fill="none" fill-rule="evenodd">
        <g id="Noma-Landing-Page-V2@2x" transform="translate(-1001.000000, -116.000000)" fill="#FFFFFF">
            <path d="M1012.40479,128.051539 L1012.40479,124.882446 C1012.40479,124.40663 1012.42671,124.038194 1012.47136,123.777961 C1012.51573,123.51718 1012.61654,123.260782 1012.77295,123.007671 C1012.92909,122.754834 1013.1822,122.580066 1013.53174,122.483369 C1013.88155,122.386398 1014.34668,122.338186 1014.92714,122.338186 L1018.09596,122.338186 L1018.09596,116 L1013.0299,116 C1010.0983,116 1007.99315,116.695508 1006.71363,118.086523 C1005.4341,119.477812 1004.79447,121.52708 1004.79447,124.23515 L1004.79447,128.051539 L1001,128.051539 L1001,134.389999 L1004.7942,134.389999 L1004.7942,152.779999 L1012.40479,152.779999 L1012.40479,134.389999 L1017.47085,134.389999 L1018.14033,128.051539 L1012.40479,128.051539 L1012.40479,128.051539 Z" id="facebook"></path>
        </g>
    </g>
</svg>