<?xml version="1.0" encoding="UTF-8"?>
<svg width="39px" height="38px" viewBox="0 0 39 38" version="1.1" xmlns="http://www.w3.org/2000/svg" xmlns:xlink="http://www.w3.org/1999/xlink">
    <!-- Generator: Sketch 40.3 (33839) - http://www.bohemiancoding.com/sketch -->
    <title>instagram</title>
    <desc>Created with Sketch.</desc>
    <defs></defs>
    <g id="Page-1" stroke="none" stroke-width="1" fill="none" fill-rule="evenodd">
        <g id="Noma-Landing-Page-V2@2x" transform="translate(-880.000000, -115.000000)" fill="#FFFFFF">
            <path d="M916.637017,116.400065 C915.703838,115.466589 914.585208,115 913.282313,115 L885.718576,115 C884.415088,115 883.297051,115.466886 882.363576,116.400065 C881.430101,117.333244 880.963511,118.451577 880.963511,119.754769 L880.963511,147.318209 C880.963511,148.621401 881.430101,149.739734 882.363576,150.672913 C883.297051,151.606388 884.415384,152.073274 885.718576,152.073274 L913.282016,152.073274 C914.584912,152.073274 915.703542,151.606388 916.636721,150.672913 C917.570196,149.739734 918.036489,148.621401 918.036489,147.318209 L918.036489,119.754769 C918.036489,118.451281 917.570196,117.33354 916.637017,116.400065 L916.637017,116.400065 Z M894.275087,128.359271 C895.731142,126.951504 897.481075,126.247324 899.524589,126.247324 C901.5841,126.247324 903.342031,126.951504 904.798383,128.359271 C906.254438,129.767335 906.982614,131.468979 906.982614,133.464205 C906.982614,135.459134 906.254438,137.161075 904.798383,138.568545 C903.342031,139.976609 901.584396,140.680789 899.524589,140.680789 C897.481075,140.680789 895.731438,139.976312 894.275087,138.568545 C892.818735,137.160778 892.090559,135.459134 892.090559,133.464205 C892.090559,131.468979 892.818735,129.767335 894.275087,128.359271 L894.275087,128.359271 Z M913.83748,146.329039 C913.83748,146.747044 913.692319,147.096912 913.402885,147.378643 C913.112859,147.660375 912.767138,147.801092 912.364538,147.801092 L886.563473,147.801092 C886.145172,147.801092 885.795008,147.660375 885.513573,147.378643 C885.231842,147.097505 885.091124,146.747044 885.091124,146.329039 L885.091124,130.688368 L888.494117,130.688368 C888.172393,131.702126 888.01153,132.756174 888.01153,133.850215 C888.01153,136.940074 889.137862,139.574897 891.390527,141.755277 C893.643487,143.935361 896.354743,145.025847 899.524589,145.025847 C901.616391,145.025847 903.54733,144.526671 905.317704,143.529206 C907.087782,142.531149 908.486958,141.175818 909.517306,139.462027 C910.547358,137.748237 911.062235,135.877435 911.062235,133.850215 C911.062235,132.756174 910.900781,131.702422 910.579056,130.688368 L913.837776,130.688368 L913.837776,146.329039 L913.83748,146.329039 Z M913.83748,124.774975 C913.83748,125.241565 913.676618,125.63587 913.354301,125.957595 C913.032576,126.279615 912.638567,126.440478 912.171681,126.440478 L907.97208,126.440478 C907.505787,126.440478 907.111185,126.279615 906.789461,125.957595 C906.467736,125.63587 906.306874,125.241565 906.306874,124.774975 L906.306874,120.792819 C906.306874,120.342227 906.467736,119.95207 906.789461,119.62205 C907.111185,119.292327 907.505787,119.127317 907.97208,119.127317 L912.171681,119.127317 C912.638567,119.127317 913.032576,119.292327 913.354301,119.62205 C913.676618,119.95207 913.83748,120.342227 913.83748,120.792819 L913.83748,124.774975 L913.83748,124.774975 Z" id="instagram"></path>
        </g>
    </g>
</svg>