<?xml version="1.0" encoding="UTF-8"?>
<svg width="195px" height="167px" viewBox="0 0 195 167" version="1.1" xmlns="http://www.w3.org/2000/svg" xmlns:xlink="http://www.w3.org/1999/xlink">
    <g id="Page-1" stroke="none" stroke-width="1" fill="none" fill-rule="evenodd" class="noma-logo">
        <g id="Noma-Landing-Page-V2@2x" transform="translate(-623.000000, -50.000000)">
            <g id="noma-logo" transform="translate(623.000000, 50.000000)">
                <path d="M0,166.85567 L195,166.85567 L195,0 L0,0 L0,166.85567 Z M12.2679124,154.815928 L182.733093,154.815928 L182.733093,12.0849742 L12.2679124,12.0849742 L12.2679124,154.815928 Z" id="Fill-1"></path>
                <path d="M132.875111,130.705887 L132.875111,101.688077 L158.433178,130.705887 L132.875111,130.705887 Z M72.5768892,124.536247 L36.3913222,83.4515567 L36.3913222,83.427433 L36.3913222,53.7753711 L36.3913222,42.3608351 L72.5618119,83.427433 L72.5768892,83.427433 L72.6452397,83.427433 L72.6452397,83.4636186 L72.5768892,83.4636186 L72.5768892,124.536247 Z M102.228951,36.2535155 C111.90658,36.2535155 119.750807,44.0987474 119.750807,53.7753711 C119.750807,63.453 111.90658,71.298232 102.228951,71.298232 C92.5513222,71.298232 84.7070954,63.453 84.7070954,53.7753711 C84.7070954,44.0987474 92.5513222,36.2535155 102.228951,36.2535155 L102.228951,36.2535155 Z M132.885162,83.4505515 L132.870085,83.4636186 L120.813255,83.4636186 L120.813255,124.511119 L84.7070954,83.5158866 L84.7070954,77.6910155 C89.6162706,81.2944948 95.6723273,83.427433 102.228951,83.427433 C118.60493,83.427433 131.881013,70.1523557 131.881013,53.7753711 C131.881013,37.3993918 118.60493,24.1233093 102.228951,24.1233093 C95.6421727,24.1233093 89.559982,26.2743402 84.6387448,29.9069691 L84.6387448,24.1233093 L72.5768892,24.1233093 L72.5768892,65.1959381 L36.390317,24.1102423 L36.3752397,24.1233093 L24.3294665,24.1233093 L24.3294665,142.767742 L36.3913222,142.767742 L36.3913222,101.700139 L72.5618119,142.767742 L72.5768892,142.767742 L84.6387448,142.767742 L84.7070954,101.765474 L120.813255,142.760706 L120.813255,142.767742 L120.820291,142.767742 L170.670936,142.767742 L170.670936,126.351557 L132.885162,83.4505515 Z" id="Fill-2"></path>
            </g>
        </g>
    </g>
</svg>
