<?xml version="1.0" encoding="UTF-8"?>
<svg width="38px" height="33px" viewBox="0 0 38 33" version="1.1" xmlns="http://www.w3.org/2000/svg" xmlns:xlink="http://www.w3.org/1999/xlink">
    <!-- Generator: Sketch 40.3 (33839) - http://www.bohemiancoding.com/sketch -->
    <title>vimeo</title>
    <desc>Created with Sketch.</desc>
    <defs></defs>
    <g id="Page-1" stroke="none" stroke-width="1" fill="none" fill-rule="evenodd">
        <g id="Noma-Landing-Page-V2@2x" transform="translate(-522.000000, -117.000000)" fill="#FFFFFF">
            <path d="M559.697725,123.085186 C559.384601,124.714972 558.464132,127.243709 556.934675,130.670165 C555.405217,134.097442 553.480861,137.362357 551.159554,140.465733 C548.502932,144.038109 545.713171,146.683582 542.789861,148.403386 C542.030885,148.871976 541.182738,149.223828 540.245421,149.458123 C539.308104,149.692007 538.359282,149.675154 537.399775,149.407565 C536.037974,148.827172 534.88862,147.431269 533.951304,145.221091 C533.48244,144.08209 532.84633,141.883421 532.042974,138.623849 C531.239618,135.47567 530.647888,133.388393 530.268606,132.361607 C530.157245,132.071411 530.017531,131.618852 529.850286,131.005165 C529.682629,130.391066 529.515383,129.855477 529.348137,129.397575 C529.180891,128.939673 528.974607,128.510133 528.728875,128.108133 C528.349592,127.46074 527.886481,127.126151 527.339542,127.103543 C526.793014,127.081347 526.145398,127.198494 525.397928,127.454985 C524.650458,127.711887 524.042291,127.806016 523.573427,127.739427 C523.305915,127.695035 523.065936,127.471838 522.853899,127.069838 C522.641863,126.668249 522.357093,126.378052 522,126.199249 L522,125.964954 C522.892526,125.339346 524.259669,124.201168 526.101018,122.548364 C527.942367,120.89597 529.465661,119.712988 530.6709,118.998595 C532.233232,118.083202 533.650507,117.804104 534.922727,118.161301 C535.525141,118.340104 536.088928,118.786497 536.613267,119.50089 C537.137606,120.215283 537.533736,120.985578 537.801658,121.811774 C538.047391,122.592756 538.426673,124.423542 538.939917,127.303721 C539.006897,127.750114 539.102232,128.54836 539.224687,129.698048 C539.347142,130.847735 539.458913,131.785324 539.559179,132.511227 C539.659444,133.236718 539.871481,134.051816 540.195289,134.955289 C540.518685,135.859995 540.937006,136.580142 541.45066,137.115732 C542.410578,138.142928 543.38118,138.299125 544.363287,137.584732 C544.988302,137.116143 545.780563,136.010848 546.740481,134.27008 C547.789158,132.238705 548.369793,130.642214 548.480742,129.481428 C548.636893,127.784642 548.341028,126.679758 547.593558,126.165954 C546.846499,125.652561 545.580032,125.473758 543.794158,125.629954 C544.151251,124.536168 544.648057,123.515137 545.283756,122.566039 C545.920277,121.617351 546.583919,120.835547 547.275914,120.22186 C547.968731,119.607761 548.68867,119.066418 549.435318,118.597417 C550.18361,118.128828 550.825062,117.788485 551.361317,117.576386 C551.896751,117.364288 552.354109,117.224533 552.733802,117.157533 C555.746694,116.711141 557.833365,117.213435 558.994635,118.664417 C559.82018,119.71381 560.054407,121.1874 559.697725,123.085186 L559.697725,123.085186 Z" id="vimeo"></path>
        </g>
    </g>
</svg>